<svg xmlns="http://www.w3.org/2000/svg" xmlns:xlink="http://www.w3.org/1999/xlink" zoomAndPan="magnify" preserveAspectRatio="xMidYMid meet" version="1.0" viewBox="13.08 11.27 350.64 350.64"><defs><clipPath id="7f58277bf7"><path d="M 13.082031 11.273438 L 363.726562 11.273438 L 363.726562 361.917969 L 13.082031 361.917969 Z M 13.082031 11.273438 " clip-rule="nonzero"/></clipPath><clipPath id="34b8e513a7"><path d="M 188.40625 11.273438 C 91.578125 11.273438 13.082031 89.769531 13.082031 186.59375 C 13.082031 283.421875 91.578125 361.917969 188.40625 361.917969 C 285.230469 361.917969 363.726562 283.421875 363.726562 186.59375 C 363.726562 89.769531 285.230469 11.273438 188.40625 11.273438 " clip-rule="nonzero"/></clipPath><clipPath id="e2830842f9"><path d="M 62.398438 59.210938 L 288.898438 59.210938 L 288.898438 312.710938 L 62.398438 312.710938 Z M 62.398438 59.210938 " clip-rule="nonzero"/></clipPath></defs><g clip-path="url(#7f58277bf7)"><g clip-path="url(#34b8e513a7)"><path fill="#000000" d="M 13.082031 11.273438 L 363.726562 11.273438 L 363.726562 361.917969 L 13.082031 361.917969 Z M 13.082031 11.273438 " fill-opacity="1" fill-rule="nonzero"/></g></g><g clip-path="url(#e2830842f9)"><path fill="#ffffff" d="M 201.53125 287.71875 L 201.53125 198.066406 L 274.132812 198.066406 L 274.132812 173.804688 L 104.675781 173.804688 L 104.675781 198.066406 L 177.28125 198.066406 L 177.28125 287.726562 C 126.46875 281.707031 86.925781 238.359375 86.925781 185.9375 C 86.925781 129.414062 132.898438 83.429688 189.402344 83.429688 C 220.753906 83.429688 249.964844 97.5 269.546875 122.035156 L 288.5 106.898438 C 264.292969 76.5625 228.171875 59.164062 189.402344 59.164062 C 119.523438 59.164062 62.671875 116.03125 62.671875 185.9375 C 62.671875 255.84375 119.523438 312.710938 189.402344 312.710938 C 225.9375 312.710938 260.703125 296.933594 284.792969 269.417969 L 266.539062 253.429688 C 249.753906 272.617188 226.542969 284.738281 201.53125 287.71875 " fill-opacity="1" fill-rule="nonzero"/></g></svg>